<?xml version="1.0" encoding="UTF-8" standalone="no"?>
<!DOCTYPE svg PUBLIC "-//W3C//DTD SVG 1.1//EN" "http://www.w3.org/Graphics/SVG/1.1/DTD/svg11.dtd">
<svg version="1.1" xmlns="http://www.w3.org/2000/svg" xmlns:xlink="http://www.w3.org/1999/xlink" preserveAspectRatio="xMidYMid meet" viewBox="0 0 400 400" width="400" height="400"><defs><path d="M200.77 79.26C186.97 79.26 175.77 68.07 175.77 54.26C175.77 40.46 186.97 29.26 200.77 29.26C214.58 29.26 225.77 40.46 225.77 54.26C225.77 68.07 214.58 79.26 200.77 79.26Z" id="bsLr4fbAF"></path><path d="M215.77 84.26C229.11 84.26 235.77 91.37 235.77 105.6C235.77 176 235.77 215.11 235.77 222.93C235.77 237.15 229.11 244.26 215.77 244.26C197.77 244.26 187.77 244.26 185.77 244.26C172.44 244.26 165.77 237.15 165.77 222.93C165.77 152.53 165.77 113.42 165.77 105.6C165.77 91.37 172.44 84.26 185.77 84.26C203.77 84.26 213.77 84.26 215.77 84.26Z" id="f297IyrUy4"></path><path d="M260.77 144.26C260.77 150.93 257.44 154.26 250.77 154.26C250.77 154.26 250.77 154.26 250.77 154.26C244.11 154.26 240.77 150.93 240.77 144.26C240.77 114.26 240.77 97.6 240.77 94.26C240.77 87.6 244.11 84.26 250.77 84.26C250.77 84.26 250.77 84.26 250.77 84.26C257.44 84.26 260.77 87.6 260.77 94.26C260.77 124.26 260.77 140.93 260.77 144.26Z" id="b1l8NRX6vR"></path><path d="M255.77 344.26C255.77 344.26 255.77 344.26 255.77 344.26C249.77 344.26 246.44 344.26 245.77 344.26C245.77 344.26 245.77 344.26 245.77 344.26C245.77 224.26 245.77 157.6 245.77 144.26C245.77 144.26 245.77 144.26 245.77 144.26C251.77 144.26 255.11 144.26 255.77 144.26C255.77 144.26 255.77 144.26 255.77 144.26C255.77 264.26 255.77 330.93 255.77 344.26Z" id="apIMoLrCR"></path><path d="M345.77 254.29L345.77 344.29L255.77 344.29L255.77 254.29L345.77 254.29Z" id="aaZs047Yt"></path><path d="M345.77 344.29L255.77 344.29L345.77 254.29L345.77 344.29Z" id="a4EWp3wyF"></path><path d="M255.77 254.29L255.77 344.29L345.77 344.29L345.77 254.29L255.77 254.29Z" id="aiMYXpSAW"></path><path d="M160.66 144.31C160.63 150.98 157.28 154.3 150.61 154.26C150.61 154.26 150.61 154.26 150.61 154.26C143.94 154.23 140.63 150.88 140.66 144.21C140.81 114.21 140.89 97.55 140.91 94.21C140.94 87.55 144.29 84.23 150.96 84.26C150.96 84.26 150.96 84.26 150.96 84.26C157.62 84.3 160.94 87.65 160.91 94.31C160.76 124.31 160.68 140.98 160.66 144.31Z" id="chiYZau5G"></path><path d="M154.67 344.29C154.67 344.29 154.67 344.29 154.67 344.29C148.67 344.26 145.34 344.24 144.67 344.24C144.67 344.24 144.67 344.24 144.67 344.24C145.26 224.24 145.59 157.57 145.66 144.24C145.66 144.24 145.66 144.24 145.66 144.24C151.66 144.27 154.99 144.28 155.66 144.29C155.66 144.29 155.66 144.29 155.66 144.29C155.07 264.29 154.74 330.95 154.67 344.29Z" id="c7R10T6b41"></path><path d="M144.23 344.29L54.23 343.84L54.67 253.84L144.67 254.29L144.23 344.29Z" id="b2jF6pFvpl"></path><path d="M54.23 343.84L54.67 253.84L144.23 344.29L54.23 343.84Z" id="h6yBAwKEX"></path><path d="M144.23 344.29L54.23 343.84L54.67 253.84L144.67 254.29L144.23 344.29Z" id="h5KI9G7T25"></path></defs><g><g><g><use xlink:href="#bsLr4fbAF" opacity="1" fill="#000000" fill-opacity="1"></use><g><use xlink:href="#bsLr4fbAF" opacity="1" fill-opacity="0" stroke="#000000" stroke-width="2.5" stroke-opacity="0"></use></g></g><g><use xlink:href="#f297IyrUy4" opacity="1" fill="#000000" fill-opacity="1"></use><g><use xlink:href="#f297IyrUy4" opacity="1" fill-opacity="0" stroke="#000000" stroke-width="2.5" stroke-opacity="0"></use></g></g><g><use xlink:href="#b1l8NRX6vR" opacity="1" fill="#000000" fill-opacity="1"></use><g><use xlink:href="#b1l8NRX6vR" opacity="1" fill-opacity="0" stroke="#000000" stroke-width="2.5" stroke-opacity="0"></use></g></g><g><use xlink:href="#apIMoLrCR" opacity="1" fill="#000000" fill-opacity="1"></use><g><use xlink:href="#apIMoLrCR" opacity="1" fill-opacity="0" stroke="#000000" stroke-width="1" stroke-opacity="1"></use></g></g><g><use xlink:href="#aaZs047Yt" opacity="1" fill="#ffff00" fill-opacity="1"></use><g><use xlink:href="#aaZs047Yt" opacity="1" fill-opacity="0" stroke="#000000" stroke-width="0.5" stroke-opacity="0"></use></g></g><g><use xlink:href="#a4EWp3wyF" opacity="1" fill="#ff0000" fill-opacity="1"></use><g><use xlink:href="#a4EWp3wyF" opacity="1" fill-opacity="0" stroke="#000000" stroke-width="0.5" stroke-opacity="0"></use></g></g><g><use xlink:href="#aiMYXpSAW" opacity="1" fill="#ffff00" fill-opacity="0"></use><g><use xlink:href="#aiMYXpSAW" opacity="1" fill-opacity="0" stroke="#000000" stroke-width="1" stroke-opacity="1"></use></g></g><g><use xlink:href="#chiYZau5G" opacity="1" fill="#000000" fill-opacity="1"></use><g><use xlink:href="#chiYZau5G" opacity="1" fill-opacity="0" stroke="#000000" stroke-width="2.5" stroke-opacity="0"></use></g></g><g><use xlink:href="#c7R10T6b41" opacity="1" fill="#000000" fill-opacity="1"></use><g><use xlink:href="#c7R10T6b41" opacity="1" fill-opacity="0" stroke="#000000" stroke-width="1" stroke-opacity="1"></use></g></g><g><use xlink:href="#b2jF6pFvpl" opacity="1" fill="#ffff00" fill-opacity="1"></use><g><use xlink:href="#b2jF6pFvpl" opacity="1" fill-opacity="0" stroke="#000000" stroke-width="0.5" stroke-opacity="0"></use></g></g><g><use xlink:href="#h6yBAwKEX" opacity="1" fill="#ff0000" fill-opacity="1"></use><g><use xlink:href="#h6yBAwKEX" opacity="1" fill-opacity="0" stroke="#000000" stroke-width="0.5" stroke-opacity="0"></use></g></g><g><use xlink:href="#h5KI9G7T25" opacity="1" fill="#ffff00" fill-opacity="0"></use><g><use xlink:href="#h5KI9G7T25" opacity="1" fill-opacity="0" stroke="#000000" stroke-width="1" stroke-opacity="1"></use></g></g></g></g></svg>