<?xml version="1.0" encoding="UTF-8" standalone="no"?>
<!DOCTYPE svg PUBLIC "-//W3C//DTD SVG 1.1//EN" "http://www.w3.org/Graphics/SVG/1.1/DTD/svg11.dtd">
<svg version="1.1" xmlns="http://www.w3.org/2000/svg" xmlns:xlink="http://www.w3.org/1999/xlink" preserveAspectRatio="xMidYMid meet" viewBox="0 0 640 640" width="640" height="640"><defs><path d="M324 298C310.19 298 299 286.81 299 273C299 259.19 310.19 248 324 248C337.81 248 349 259.19 349 273C349 286.81 337.81 298 324 298Z" id="a1mDAilO1F"></path><path d="M339 303C352.33 303 359 310.11 359 324.33C359 394.73 359 433.84 359 441.67C359 455.89 352.33 463 339 463C321 463 311 463 309 463C295.67 463 289 455.89 289 441.67C289 371.27 289 332.16 289 324.33C289 310.11 295.67 303 309 303C327 303 337 303 339 303Z" id="c3id3hx1Ho"></path><path d="M384 363C384 369.67 380.67 373 374 373C374 373 374 373 374 373C367.33 373 364 369.67 364 363C364 333 364 316.33 364 313C364 306.33 367.33 303 374 303C374 303 374 303 374 303C380.67 303 384 306.33 384 313C384 343 384 359.67 384 363Z" id="a7izIMD7I"></path><path d="M379 563C379 563 379 563 379 563C373 563 369.67 563 369 563C369 563 369 563 369 563C369 443 369 376.33 369 363C369 363 369 363 369 363C375 363 378.33 363 379 363C379 363 379 363 379 363C379 483 379 549.67 379 563Z" id="a1vcffQTNq"></path><path d="M369 473L369 563L279 563L279 473L369 473Z" id="b1GEAKfnIG"></path><path d="M369 563L279 563L369 473L369 563Z" id="c1Vsq4rdc5"></path><path d="M369 473L369 563L279 563L279 473L369 473Z" id="b4hE28NfzN"></path><path d="M264 263C264 256.33 267.33 253 274 253C274 253 274 253 274 253C280.67 253 284 256.33 284 263C284 293 284 309.67 284 313C284 319.67 280.67 323 274 323C274 323 274 323 274 323C267.33 323 264 319.67 264 313C264 283 264 266.33 264 263Z" id="a18npz8AfG"></path><path d="M269 63C269 63 269 63 269 63C275 63 278.33 63 279 63C279 63 279 63 279 63C279 183 279 249.67 279 263C279 263 279 263 279 263C273 263 269.67 263 269 263C269 263 269 263 269 263C269 143 269 76.33 269 63Z" id="f2WO6wTvm"></path><path d="M179 63L269 63L269 153L179 153L179 63Z" id="d13xBHt5CC"></path><path d="M269 63L269 153L179 63L269 63Z" id="g3dwBOdMK"></path><path d="M179 63L269 63L269 153L179 153L179 63Z" id="a7C4xNJGW"></path></defs><g><g><g><use xlink:href="#a1mDAilO1F" opacity="1" fill="#000000" fill-opacity="1"></use><g><use xlink:href="#a1mDAilO1F" opacity="1" fill-opacity="0" stroke="#000000" stroke-width="2.5" stroke-opacity="0"></use></g></g><g><use xlink:href="#c3id3hx1Ho" opacity="1" fill="#000000" fill-opacity="1"></use><g><use xlink:href="#c3id3hx1Ho" opacity="1" fill-opacity="0" stroke="#000000" stroke-width="2.5" stroke-opacity="0"></use></g></g><g><use xlink:href="#a7izIMD7I" opacity="1" fill="#000000" fill-opacity="1"></use><g><use xlink:href="#a7izIMD7I" opacity="1" fill-opacity="0" stroke="#000000" stroke-width="2.5" stroke-opacity="0"></use></g></g><g><use xlink:href="#a1vcffQTNq" opacity="1" fill="#000000" fill-opacity="1"></use><g><use xlink:href="#a1vcffQTNq" opacity="1" fill-opacity="0" stroke="#000000" stroke-width="1" stroke-opacity="1"></use></g></g><g><use xlink:href="#b1GEAKfnIG" opacity="1" fill="#ffff00" fill-opacity="1"></use><g><use xlink:href="#b1GEAKfnIG" opacity="1" fill-opacity="0" stroke="#000000" stroke-width="0.5" stroke-opacity="0"></use></g></g><g><use xlink:href="#c1Vsq4rdc5" opacity="1" fill="#ff0000" fill-opacity="1"></use><g><use xlink:href="#c1Vsq4rdc5" opacity="1" fill-opacity="0" stroke="#000000" stroke-width="0.5" stroke-opacity="0"></use></g></g><g><use xlink:href="#b4hE28NfzN" opacity="1" fill="#ffff00" fill-opacity="0"></use><g><use xlink:href="#b4hE28NfzN" opacity="1" fill-opacity="0" stroke="#000000" stroke-width="1" stroke-opacity="1"></use></g></g><g><use xlink:href="#a18npz8AfG" opacity="1" fill="#000000" fill-opacity="1"></use><g><use xlink:href="#a18npz8AfG" opacity="1" fill-opacity="0" stroke="#000000" stroke-width="2.5" stroke-opacity="0"></use></g></g><g><use xlink:href="#f2WO6wTvm" opacity="1" fill="#000000" fill-opacity="1"></use><g><use xlink:href="#f2WO6wTvm" opacity="1" fill-opacity="0" stroke="#000000" stroke-width="1" stroke-opacity="1"></use></g></g><g><use xlink:href="#d13xBHt5CC" opacity="1" fill="#ffff00" fill-opacity="1"></use><g><use xlink:href="#d13xBHt5CC" opacity="1" fill-opacity="0" stroke="#000000" stroke-width="0.5" stroke-opacity="0"></use></g></g><g><use xlink:href="#g3dwBOdMK" opacity="1" fill="#ff0000" fill-opacity="1"></use><g><use xlink:href="#g3dwBOdMK" opacity="1" fill-opacity="0" stroke="#000000" stroke-width="0.5" stroke-opacity="0"></use></g></g><g><use xlink:href="#a7C4xNJGW" opacity="1" fill="#ffff00" fill-opacity="0"></use><g><use xlink:href="#a7C4xNJGW" opacity="1" fill-opacity="0" stroke="#000000" stroke-width="1" stroke-opacity="1"></use></g></g></g></g></svg>